<?xml version="1.0"?>
<svg xmlns:rdf="http://www.w3.org/1999/02/22-rdf-syntax-ns#" xmlns="http://www.w3.org/2000/svg" xmlns:cc="http://creativecommons.org/ns#" xmlns:dc="http://purl.org/dc/elements/1.1/" xmlns:svg="http://www.w3.org/2000/svg" id="svg2" viewBox="0 0 903.72 905" version="1.1">
  <title id="title2965">Go Board 19 x 19</title>
  <g id="layer1" transform="translate(157.89 -48.724)">
    <g id="g2867" stroke="#000">
      <g id="g4722" fill="none">
        <path id="path2846" stroke-width="2.5028" d="m-156.64 301.26h900"/>
        <path id="path2846-1" stroke-width="2.5028" d="m-156.64 351.26h900"/>
        <path id="path2846-4" stroke-width="2.5028" d="m-156.64 401.26h900"/>
        <path id="path2846-9" stroke-width="2.5028" d="m-156.64 451.26h900"/>
        <path id="path2846-8" stroke-width="2.5028" d="m-156.64 501.26h900"/>
        <path id="path2846-2" stroke-width="2.5028" d="m-156.64 551.26h900"/>
        <path id="path2846-5" stroke-width="2.5028" d="m-156.64 601.26h900"/>
        <path id="path2846-7" stroke-width="2.5028" d="m-156.64 651.26h900"/>
        <path id="path2846-52" stroke-width="2.5028" d="m-156.64 701.26h900"/>
        <path id="path2846-14" stroke-width="2.5034" d="m94.587 52.475v900"/>
        <path id="path2846-3" stroke-width="2.5034" d="m144.59 52.475v900"/>
        <path id="path2846-3-2" stroke-width="2.5034" d="m194.59 52.475v900"/>
        <path id="path2846-3-1" stroke-width="2.5034" d="m244.58 52.475v900"/>
        <path id="path2846-3-8" stroke-width="2.5034" d="m294.58 52.475v900"/>
        <path id="path2846-3-7" stroke-width="2.5034" d="m344.58 52.475v900"/>
        <path id="path2846-3-89" stroke-width="2.5034" d="m394.58 52.475v900"/>
        <path id="path2846-3-9" stroke-width="2.5034" d="m444.58 52.475v900"/>
        <path id="path2846-3-3" stroke-width="2.5034" d="m494.58 52.475v900"/>
        <path id="path2846-3-3-1" stroke-width="2.5034" d="m544.58 52.475v900"/>
        <path id="path2846-3-3-3" stroke-width="2.5034" d="m594.58 52.475v900"/>
        <path id="path2846-3-3-7" stroke-width="2.5034" d="m44.588 52.475v900"/>
        <path id="path2846-3-3-2" stroke-width="2.5034" d="m-5.4118 52.475v900"/>
        <path id="path2846-77" stroke-width="2.5028" d="m-156.64 251.26h900"/>
        <path id="path2846-31" stroke-width="2.5028" d="m-156.64 201.26h900"/>
        <path id="path2846-6" stroke-width="2.5028" d="m-156.64 751.26h900"/>
        <path id="path2846-0" stroke-width="2.5028" d="m-156.64 801.26h900"/>
        <path id="path2846-3-3-3-0" stroke-width="2.5034" d="m644.58 52.475v900"/>
        <path id="path2846-3-3-3-0-9" stroke-width="2.5034" d="m694.58 52.475v900"/>
        <path id="path2846-3-3-3-0-0" stroke-width="2.5069" d="m744.58 49.977v902.49"/>
        <path id="path2846-3-3-3-0-1" stroke-width="2.5034" d="m-55.411 52.475v900"/>
        <path id="path2846-3-3-3-0-8" stroke-width="2.5" d="m-105.42 203.51v597.74"/>
        <path id="path2846-3-3-3-0-3" stroke-width="2.5034" d="m-105.41 52.475v900"/>
        <path id="path2846-3-3-3-0-4" stroke-width="2.5034" d="m-155.41 52.475v900"/>
        <path id="path2846-31-6" stroke-width="2.5028" d="m-156.64 151.26h900"/>
        <path id="path2846-31-66" stroke-width="2.5028" d="m-156.64 101.26h900"/>
        <path id="path2846-31-8" stroke-width="2.5028" d="m-156.64 51.256h900"/>
        <path id="path2846-31-6-4" stroke-width="2.5028" d="m-156.64 851.26h900"/>
        <path id="path2846-31-6-4-9" stroke-width="2.5028" d="m-156.64 901.26h900"/>
        <path id="path2846-31-6-4-3" stroke-width="2.5028" d="m-156.64 951.26h900"/>
      </g>
      <path id="path4317" stroke-width="2" style="color:#000000" transform="matrix(.23349 0 0 .46698 64.483 722.37)" d="m-280 170c0 5.5228-8.9543 10-20 10s-20-4.4772-20-10 8.9543-10 20-10 20 4.4772 20 10z"/>
      <path id="path4317-2" stroke-width="2" style="color:#000000" transform="matrix(.23349 0 0 .46698 364.37 721.88)" d="m-280 170c0 5.5228-8.9543 10-20 10s-20-4.4772-20-10 8.9543-10 20-10 20 4.4772 20 10z"/>
      <path id="path4317-6" stroke-width="2" style="color:#000000" transform="matrix(.23349 0 0 .46698 664.69 721.93)" d="m-280 170c0 5.5228-8.9543 10-20 10s-20-4.4772-20-10 8.9543-10 20-10 20 4.4772 20 10z"/>
      <path id="path4317-24" stroke-width="2" style="color:#000000" transform="matrix(.23349 0 0 .46698 64.739 421.8)" d="m-280 170c0 5.5228-8.9543 10-20 10s-20-4.4772-20-10 8.9543-10 20-10 20 4.4772 20 10z"/>
      <path id="path4317-5" stroke-width="2" style="color:#000000" transform="matrix(.23349 0 0 .46698 364.48 422.02)" d="m-280 170c0 5.5228-8.9543 10-20 10s-20-4.4772-20-10 8.9543-10 20-10 20 4.4772 20 10z"/>
      <path id="path4317-5-7" stroke-width="2" style="color:#000000" transform="matrix(.23349 0 0 .46698 664.58 422.12)" d="m-280 170c0 5.5228-8.9543 10-20 10s-20-4.4772-20-10 8.9543-10 20-10 20 4.4772 20 10z"/>
      <path id="path4317-24-8" stroke-width="2" style="color:#000000" transform="matrix(.23349 0 0 .46698 64.539 122)" d="m-280 170c0 5.5228-8.9543 10-20 10s-20-4.4772-20-10 8.9543-10 20-10 20 4.4772 20 10z"/>
      <path id="path4317-24-8-8" stroke-width="2" style="color:#000000" transform="matrix(.23349 0 0 .46698 364.66 122.04)" d="m-280 170c0 5.5228-8.9543 10-20 10s-20-4.4772-20-10 8.9543-10 20-10 20 4.4772 20 10z"/>
      <path id="path4317-24-8-8-2" stroke-width="2" style="color:#000000" transform="matrix(.23349 0 0 .46698 664.74 122.15)" d="m-280 170c0 5.5228-8.9543 10-20 10s-20-4.4772-20-10 8.9543-10 20-10 20 4.4772 20 10z"/>
    </g>
  </g>
  <metadata>
    <rdf:RDF>
      <cc:Work>
        <dc:format>image/svg+xml</dc:format>
        <dc:type rdf:resource="http://purl.org/dc/dcmitype/StillImage"/>
        <cc:license rdf:resource="http://creativecommons.org/licenses/publicdomain/"/>
        <dc:publisher>
          <cc:Agent rdf:about="http://openclipart.org/">
            <dc:title>Openclipart</dc:title>
          </cc:Agent>
        </dc:publisher>
        <dc:title>Go Board 19 x 19</dc:title>
        <dc:date>2010-05-09T15:13:09</dc:date>
        <dc:description>A full size go board of 19 x 19 points.</dc:description>
        <dc:source>http://openclipart.org/detail/59461/go-board-19-x-19-by-mazeo</dc:source>
        <dc:creator>
          <cc:Agent>
            <dc:title>mazeo</dc:title>
          </cc:Agent>
        </dc:creator>
        <dc:subject>
          <rdf:Bag>
            <rdf:li>board</rdf:li>
            <rdf:li>board games</rdf:li>
            <rdf:li>clip art</rdf:li>
            <rdf:li>clipart</rdf:li>
            <rdf:li>game of go</rdf:li>
            <rdf:li>go</rdf:li>
            <rdf:li>go board</rdf:li>
            <rdf:li>go game</rdf:li>
          </rdf:Bag>
        </dc:subject>
      </cc:Work>
      <cc:License rdf:about="http://creativecommons.org/licenses/publicdomain/">
        <cc:permits rdf:resource="http://creativecommons.org/ns#Reproduction"/>
        <cc:permits rdf:resource="http://creativecommons.org/ns#Distribution"/>
        <cc:permits rdf:resource="http://creativecommons.org/ns#DerivativeWorks"/>
      </cc:License>
    </rdf:RDF>
  </metadata>
</svg>
